<svg xmlns="http://www.w3.org/2000/svg" viewBox="0 0 64 64" width="64" height="64">
  <defs>
    <linearGradient id="bg" x1="0%" y1="0%" x2="100%" y2="100%">
      <stop offset="0%" stop-color="#EDFF21" stop-opacity="0.35"/>
      <stop offset="100%" stop-color="#EDFF21" stop-opacity="0.1"/>
    </linearGradient>
  </defs>
  <rect width="64" height="64" rx="14" fill="url(#bg)" stroke="#EDFF21" stroke-opacity="0.35" stroke-width="1"/>
  <svg x="12" y="12" width="40" height="40" viewBox="0 0 24 24" fill="none" stroke="#EDFF21" stroke-width="1.5" stroke-linecap="round" stroke-linejoin="round">
    <path d="M21 8a2 2 0 0 0-1-1.73l-7-4a2 2 0 0 0-2 0l-7 4A2 2 0 0 0 3 8v8a2 2 0 0 0 1 1.73l7 4a2 2 0 0 0 2 0l7-4A2 2 0 0 0 21 16z"/>
    <path d="M3.27 6.96 12 12.01l8.73-5.05M12 22.08V12"/>
  </svg>
</svg>
