<svg xmlns="http://www.w3.org/2000/svg" viewBox="0 0 64 64" width="64" height="64">
  <defs>
    <linearGradient id="bg" x1="0%" y1="0%" x2="100%" y2="100%">
      <stop offset="0%" stop-color="#0401E6" stop-opacity="0.45"/>
      <stop offset="100%" stop-color="#0401E6" stop-opacity="0.15"/>
    </linearGradient>
  </defs>
  <rect width="64" height="64" rx="14" fill="url(#bg)" stroke="#7B9FFF" stroke-opacity="0.4" stroke-width="1"/>
  <svg x="12" y="12" width="40" height="40" viewBox="0 0 24 24" fill="none" stroke="#7B9FFF" stroke-width="1.5" stroke-linecap="round" stroke-linejoin="round">
    <path d="M9 5H7a2 2 0 0 0-2 2v12a2 2 0 0 0 2 2h10a2 2 0 0 0 2-2V7a2 2 0 0 0-2-2h-2"/>
    <rect x="9" y="3" width="6" height="4" rx="1"/>
    <path d="M9 12l2 2 4-4M9 17l2 2 4-4"/>
  </svg>
</svg>
